<?xml version="1.0" encoding="utf-8"?>
<!-- Generator: Adobe Illustrator 26.0.3, SVG Export Plug-In . SVG Version: 6.00 Build 0)  -->
<svg version="1.1" id="Layer_1" xmlns="http://www.w3.org/2000/svg" xmlns:xlink="http://www.w3.org/1999/xlink" x="0px" y="0px"
	 viewBox="0 0 500 500" style="enable-background:new 0 0 500 500;" xml:space="preserve">
<style type="text/css">
	.st0{fill:#ECB57A;}
	.st1{fill:#75A8C8;}
	.st2{fill:#ADD569;}
	.st3{fill:#ED7A95;}
	.st4{fill:#E8EA75;}
	.st5{opacity:0.75;}
	.st6{fill:#212121;}
</style>
<path class="st0" d="M166.4,304.6c7.9-48.1,36.4-89.4,76-114.5c-22.3-11.7-47.6-18.4-74.4-18.4c-27.7,0-53.8,7.1-76.5,19.5
	C98.4,239.2,126.7,280.3,166.4,304.6z"/>
<path class="st1" d="M250,185.6c24.3-13.7,52.3-21.5,82.1-21.5c27.9,0,54.3,6.9,77.5,19c0.5-5,0.7-10.1,0.7-15.2
	C410.3,79.5,338.4,7.6,250,7.6S89.7,79.5,89.7,167.9c0,5.1,0.3,10.2,0.7,15.2c23.2-12.1,49.6-19,77.5-19
	C197.7,164.1,225.7,171.9,250,185.6z"/>
<path class="st2" d="M164.1,332.1c0-6.5,0.4-12.9,1.1-19.2c-42.2-24.8-72.7-67.4-80.9-117.5c-46,28.2-76.7,78.9-76.7,136.7
	c0,88.4,71.9,160.3,160.3,160.3c26.9,0,52.2-6.6,74.4-18.4C195.4,444.2,164.1,391.7,164.1,332.1z"/>
<path class="st3" d="M334.8,312.9c0.7,6.3,1.1,12.7,1.1,19.2c0,59.7-31.3,112.1-78.3,141.9c22.3,11.7,47.6,18.4,74.4,18.4
	c88.4,0,160.3-71.9,160.3-160.3c0-57.8-30.7-108.5-76.7-136.7C407.4,245.4,377,288.1,334.8,312.9z"/>
<path class="st0" d="M257.6,190.1c39.6,25.1,68.1,66.4,76,114.5c39.7-24.4,68-65.5,75-113.4c-22.8-12.4-48.8-19.5-76.5-19.5
	C305.2,171.8,279.9,178.4,257.6,190.1z"/>
<path class="st0" d="M328.2,332.1c0-5.1-0.3-10.2-0.7-15.2c-23.2,12.1-49.6,19-77.5,19s-54.3-6.9-77.5-19c-0.5,5-0.7,10.1-0.7,15.2
	c0,58.4,31.4,109.6,78.2,137.7C296.8,441.7,328.2,390.5,328.2,332.1z"/>
<path class="st4" d="M250,194.4c-40.5,24.2-69.4,65.8-76.5,114.3c22.8,12.4,48.8,19.5,76.5,19.5c27.7,0,53.8-7.1,76.5-19.5
	C319.4,260.2,290.5,218.6,250,194.4z"/>
<g class="st5">
	<g>
		<path class="st6" d="M375.2,327.4h60.7v9.8h-49v27.9h45.7v9.8h-45.7v30.4h49.4v9.8h-61.1V327.4z"/>
	</g>
	<g>
		<path class="st6" d="M71.9,327.4h31.9c2,0,4,0,6.2,0.1c2.1,0,4.2,0.2,6.3,0.4c2.1,0.2,4.1,0.5,6,0.9c1.9,0.4,3.5,1,4.8,1.8
			c2.9,1.7,5.3,4.1,7.3,7.2c2,3.1,3,6.8,3,11.1c0,4.7-1.2,8.7-3.4,12.1c-2.3,3.4-5.5,5.9-9.6,7.6v0.2c5.4,1.1,9.6,3.6,12.4,7.4
			c2.9,3.8,4.3,8.4,4.3,13.8c0,3.2-0.6,6.3-1.7,9.4c-1.1,3-2.9,5.7-5.1,8.1c-2.3,2.3-5,4.2-8.4,5.7c-3.3,1.4-7.2,2.2-11.5,2.2H71.9
			V327.4z M83.6,365.2H107c6.6,0,11.4-1.2,14.3-3.5c2.9-2.3,4.4-5.8,4.4-10.5c0-3-0.5-5.5-1.5-7.3c-1-1.8-2.3-3.3-4.1-4.2
			c-1.7-1-3.7-1.6-6-1.9c-2.3-0.3-4.7-0.4-7.2-0.4H83.6V365.2z M83.6,405.4h29.3c5.1,0,9.1-1.4,12.1-4.2c3-2.8,4.4-6.7,4.4-11.5
			c0-2.9-0.5-5.3-1.6-7.1c-1.1-1.9-2.5-3.4-4.2-4.5c-1.8-1.1-3.8-1.9-6.1-2.3c-2.3-0.5-4.7-0.7-7.1-0.7H83.6V405.4z"/>
	</g>
	<g>
		<path class="st6" d="M207.9,87.9c0-6,0.9-11.8,2.6-17.3c1.8-5.5,4.4-10.4,7.9-14.7c3.5-4.3,7.9-7.7,13.2-10.2
			c5.3-2.5,11.4-3.8,18.3-3.8c7,0,13.1,1.3,18.3,3.8c5.3,2.5,9.6,6,13.2,10.2c3.5,4.3,6.2,9.2,7.9,14.7c1.8,5.5,2.6,11.3,2.6,17.3
			c0,6-0.9,11.8-2.6,17.3c-1.8,5.5-4.4,10.4-7.9,14.7c-3.5,4.3-7.9,7.7-13.2,10.2c-5.3,2.5-11.4,3.8-18.3,3.8
			c-7,0-13.1-1.3-18.3-3.8c-5.3-2.5-9.6-5.9-13.2-10.2c-3.5-4.3-6.2-9.2-7.9-14.7C208.8,99.7,207.9,93.9,207.9,87.9z M219.6,87.9
			c0,4.4,0.6,8.8,1.7,13.1c1.1,4.3,3,8.2,5.4,11.6c2.5,3.4,5.6,6.2,9.5,8.3c3.9,2.1,8.5,3.1,13.8,3.1c5.3,0,9.9-1,13.8-3.1
			c3.9-2.1,7-4.9,9.5-8.3c2.5-3.4,4.3-7.3,5.4-11.6c1.1-4.3,1.7-8.7,1.7-13.1c0-4.4-0.6-8.8-1.7-13.1c-1.1-4.3-3-8.2-5.4-11.6
			c-2.5-3.4-5.6-6.2-9.5-8.3c-3.9-2.1-8.5-3.1-13.8-3.1c-5.3,0-9.9,1-13.8,3.1c-3.9,2.1-7,4.9-9.5,8.3c-2.5,3.4-4.3,7.3-5.4,11.6
			C220.2,79.1,219.6,83.5,219.6,87.9z"/>
	</g>
</g>
<path class="st6" d="M416.8,187.1c0.7-6.3,1.1-12.7,1.1-19.2C417.9,75.3,342.6,0,250,0S82.1,75.3,82.1,167.9
	c0,6.5,0.4,12.9,1.1,19.2C33.5,216.3,0,270.4,0,332.1C0,424.7,75.3,500,167.9,500c29.8,0,57.8-7.8,82.1-21.5
	c24.3,13.7,52.3,21.5,82.1,21.5c92.6,0,167.9-75.3,167.9-167.9C500,270.4,466.5,216.3,416.8,187.1z M89.7,167.9
	C89.7,79.5,161.6,7.6,250,7.6s160.3,71.9,160.3,160.3c0,5.1-0.3,10.2-0.7,15.2c-23.2-12.1-49.6-19-77.5-19
	c-29.8,0-57.8,7.8-82.1,21.5c-24.3-13.7-52.3-21.5-82.1-21.5c-27.9,0-54.3,6.9-77.5,19C90,178.1,89.7,173.1,89.7,167.9z
	 M328.2,332.1c0,58.4-31.4,109.6-78.2,137.7c-46.8-28-78.2-79.2-78.2-137.7c0-5.1,0.3-10.2,0.7-15.2c23.2,12.1,49.6,19,77.5,19
	s54.3-6.9,77.5-19C328,321.9,328.2,326.9,328.2,332.1z M250,194.4c40.5,24.2,69.4,65.8,76.5,114.3c-22.8,12.4-48.8,19.5-76.5,19.5
	s-53.8-7.1-76.5-19.5C180.6,260.2,209.5,218.6,250,194.4z M166.4,304.6c-39.7-24.4-68-65.5-75-113.4c22.8-12.4,48.8-19.5,76.5-19.5
	c26.9,0,52.2,6.6,74.4,18.4C202.7,215.3,174.3,256.5,166.4,304.6z M257.6,190.1c22.3-11.7,47.6-18.4,74.4-18.4
	c27.7,0,53.8,7.1,76.5,19.5c-7,47.9-35.3,89-75,113.4C325.7,256.5,297.3,215.3,257.6,190.1z M167.9,492.4
	c-88.4,0-160.3-71.9-160.3-160.3c0-57.8,30.7-108.5,76.7-136.7c8.3,50.1,38.7,92.7,80.9,117.5c-0.7,6.3-1.1,12.7-1.1,19.2
	c0,59.7,31.3,112.1,78.3,141.9C220.1,485.7,194.8,492.4,167.9,492.4z M332.1,492.4c-26.9,0-52.2-6.6-74.4-18.4
	c47-29.8,78.3-82.3,78.3-141.9c0-6.5-0.4-12.9-1.1-19.2c42.2-24.8,72.7-67.4,80.9-117.5c46,28.2,76.7,78.9,76.7,136.7
	C492.4,420.5,420.5,492.4,332.1,492.4z"/>
</svg>
